# xmcd
#
# Track frame offsets: 
#        150
#        13602
#        19130
#        30800
#        42795
#        56202
#        68577
#        82010
#        99350
#        109155
#        120077
#        133557
#        148712
#        166867
#        181832
#        197090
#        212467
#        233480
#        247062
#        266532
#        283025
#        302562
#        314967
#        327447
#        336175
#
# Disc length: 4727 seconds
#
# Revision: 2
# Processed by: cddbd v1.5.2PL0 Copyright (c) Steve Scherf et al.
# Submitted via: ExactAudioCopy v0.95b3
#
DISCID=58127519
DTITLE=Various Artist - Can't You Hear Me Callin' 80 Years Of American Music 
DTITLE=[CD4]
DYEAR=2004
DGENRE=Bluegrass
TTITLE0=Grandpa Jones - Turn Your Radio On
TTITLE1=The Byrds - Black Mountain Rag (Soldier's Joy)
TTITLE2=The Byrds - Pretty Boy Floyd
TTITLE3=The Byrds - Bristol Steam Convention Blues
TTITLE4=The Byrds - Farther Along
TTITLE5=Don Reno and Bill Harrell - Contentment
TTITLE6=Herb Pedersen - Can't You Hear Me Callin'
TTITLE7=Herb Pedersen - Cora Is Gone
TTITLE8=Don Reno and Bill Harrell - Choking The Strings
TTITLE9=Ricky Skaggs - Uncle Pen
TTITLE10=Earl Scruggs - Till The End Of The World Rolls Round
TTITLE11=Ricky Skaggs - A Vision Of Mother
TTITLE12=Edgar Meyer (with Bèla Fleck and Mike Marshall) - Big Country
TTITLE13=The O'Kanes - If I Could Be There
TTITLE14=Alison Krauss and Union Station - So Long, So Wrong
TTITLE15=Joshua Bell and Edgar Meyer (with Sam Bush and Mike Marshall - Bp
TTITLE16=Alison Krauss and Union Station - The Boy Who Wouldn't Hoe Corn
TTITLE17=Bluegrass Reunion - Little Maggie
TTITLE18=Steve Earle and The Del McCoury Band - Carrie Brown
TTITLE19=The Dixie Chicks - Tortured, Tangled Hearts
TTITLE20=Ricky Skaggs - Walls Of Time
TTITLE21=Rhonda Vincent - Is The Grass Any Bluer
TTITLE22=Patty Loveless - Daniel Prayed
TTITLE23=Ralph Stanley - Twelve Gates To The City
TTITLE24=Mark O'connor - Soldier's Joy
EXTD=
EXTT0=
EXTT1=
EXTT2=
EXTT3=
EXTT4=
EXTT5=
EXTT6=
EXTT7=
EXTT8=
EXTT9=
EXTT10=
EXTT11=
EXTT12=
EXTT13=
EXTT14=
EXTT15=
EXTT16=
EXTT17=
EXTT18=
EXTT19=
EXTT20=
EXTT21=
EXTT22=
EXTT23=
EXTT24=
PLAYORDER=
